<svg viewBox="0 0 512 512" xml:space="preserve" xmlns="http://www.w3.org/2000/svg"><path d="m132.586 287.737 118.319 175.205c2.438 3.61 7.752 3.61 10.189 0l118.319-175.205c3.567-5.208 6.098-9.028 6.098-9.028l-.033.006c15.3-24.677 23.768-54.033 22.69-85.445-2.69-78.446-65.624-142.617-144.01-146.706-87.796-4.581-160.42 65.252-160.42 152.047 0 29.396 8.353 56.832 22.782 80.104.001 0 2.838 4.306 6.066 9.022zM256 91.047c59.405 0 107.563 48.158 107.563 107.563 0 59.406-48.158 107.563-107.563 107.563S148.437 258.017 148.437 198.61c0-59.405 48.158-107.563 107.563-107.563z" fill="#77ddd5" class="fill-000000"></path><path d="M187.506 162.638a8.595 8.595 0 0 0 2.294 2.441l36.054 26.049 10.33 61.303a10.706 10.706 0 0 0 3.525 6.292l6.418 5.586c1.73 1.506 4.432.289 4.449-2.005l.427-53.006 35.944 25.97a24.453 24.453 0 0 0 27.687.655l13.846-9.039a3.07 3.07 0 0 0 .615-4.614l-1.524-1.712a11.964 11.964 0 0 0-11.176-3.795l-15.829 3.021-73.359-62.315c-7.147-6.072-16.206-9.632-25.584-9.499-2.982.043-6.106.438-9.208 1.384-5.584 1.702-8.032 8.047-5.043 13.062l.134.222zM272.809 181.48a11.304 11.304 0 0 0 8.046 2.85l38.469-1.809c1.866-.419 2.382-2.834.85-3.979l-5.683-4.246a8.924 8.924 0 0 0-5.748-1.765l-46.383-5.086c-1.883-.207-2.92 2.126-1.506 3.386l11.955 10.649z" fill="#77ddd5" class="fill-000000"></path></svg>